<svg width="14" height="16" viewBox="0 0 14 16" fill="none" xmlns="http://www.w3.org/2000/svg">
<path fillRule="evenodd" clipRule="evenodd" d="M7 0C4.23858 0 2 2.23858 2 5V7.94722C2 7.99658 1.98539 8.04483 1.95801 8.0859L0.25488 10.6406C0.08868 10.8899 0 11.1828 0 11.4824C0 12.3206 0.67945 13 1.51759 13H12.4824C13.3206 13 14 12.3206 14 11.4824C14 11.1828 13.9113 10.8899 13.7451 10.6406L12.042 8.0859C12.0146 8.04483 12 7.99658 12 7.94722V5C12 2.23858 9.7614 0 7 0ZM3.5 5C3.5 3.067 5.067 1.5 7 1.5C8.933 1.5 10.5 3.067 10.5 5V7.94722C10.5 8.29272 10.6023 8.63048 10.7939 8.91795L12.497 11.4726C12.499 11.4755 12.5 11.4789 12.5 11.4824C12.5 11.4847 12.4995 11.4873 12.4995 11.4873L12.4989 11.489C12.4989 11.489 12.497 11.4927 12.4948 11.4948C12.4927 11.497 12.489 11.4989 12.489 11.4989C12.489 11.4989 12.4862 11.5 12.4824 11.5H1.51759C1.51378 11.5 1.51097 11.4989 1.51097 11.4989C1.51097 11.4989 1.50729 11.497 1.50515 11.4948C1.50302 11.4927 1.50107 11.489 1.50107 11.489C1.50107 11.489 1.5 11.4862 1.5 11.4824C1.5 11.4789 1.50103 11.4755 1.50295 11.4726L3.20609 8.91795C3.39773 8.63048 3.5 8.29272 3.5 7.94722V5Z" fill="#24292E"/>
<path d="M8.98458 14.2495C8.86177 15.2363 8.02007 16 6.99999 16C5.97991 16 5.13821 15.2363 5.0154 14.2495C4.99835 14.1125 5.11192 14 5.24999 14H8.74999C8.88806 14 9.00159 14.1125 8.98458 14.2495Z" fill="#24292E"/>
</svg>
