<svg width="12" height="16" viewBox="0 0 12 16" fill="none" xmlns="http://www.w3.org/2000/svg">
<path fillRule="evenodd" clipRule="evenodd" d="M6 1.5C3.637 1.5 2 3.19 2 5.25C2 6.234 2.424 6.875 2.984 7.554L3.198 7.807C3.421 8.071 3.668 8.363 3.871 8.655C4.155 9.066 4.408 9.551 4.492 10.145C4.51202 10.338 4.45649 10.5312 4.33707 10.6841C4.21766 10.837 4.04365 10.9376 3.85158 10.9649C3.65951 10.9922 3.46434 10.9441 3.30704 10.8305C3.14974 10.717 3.04256 10.5469 3.008 10.356C2.968 10.074 2.845 9.809 2.638 9.509C2.46879 9.27344 2.2879 9.04649 2.096 8.829C2.012 8.729 1.923 8.624 1.828 8.509C1.201 7.75 0.5 6.766 0.5 5.25C0.5 2.31 2.863 0 6 0C9.137 0 11.5 2.31 11.5 5.25C11.5 6.766 10.799 7.75 10.172 8.509C10.077 8.624 9.988 8.729 9.904 8.828C9.697 9.073 9.521 9.281 9.363 9.509C9.155 9.809 9.033 10.074 8.993 10.356C8.97908 10.4535 8.94609 10.5473 8.89592 10.6321C8.84574 10.7168 8.77936 10.7909 8.70057 10.85C8.62178 10.9091 8.53212 10.9521 8.43671 10.9765C8.3413 11.001 8.24201 11.0064 8.1445 10.9925C8.04699 10.9786 7.95318 10.9456 7.86843 10.8954C7.78367 10.8452 7.70962 10.7789 7.65052 10.7001C7.59142 10.6213 7.54841 10.5316 7.52396 10.4362C7.4995 10.3408 7.49408 10.2415 7.508 10.144C7.592 9.551 7.845 9.066 8.129 8.655C8.332 8.363 8.579 8.071 8.802 7.807C8.877 7.719 8.949 7.634 9.015 7.554C9.576 6.875 10 6.234 10 5.25C10 3.19 8.363 1.5 6 1.5ZM4 15.25C4 15.0511 4.07902 14.8603 4.21967 14.7197C4.36032 14.579 4.55109 14.5 4.75 14.5H7.25C7.44891 14.5 7.63968 14.579 7.78033 14.7197C7.92098 14.8603 8 15.0511 8 15.25C8 15.4489 7.92098 15.6397 7.78033 15.7803C7.63968 15.921 7.44891 16 7.25 16H4.75C4.55109 16 4.36032 15.921 4.21967 15.7803C4.07902 15.6397 4 15.4489 4 15.25ZM3.75 12C3.55109 12 3.36032 12.079 3.21967 12.2197C3.07902 12.3603 3 12.5511 3 12.75C3 12.9489 3.07902 13.1397 3.21967 13.2803C3.36032 13.421 3.55109 13.5 3.75 13.5H8.25C8.44891 13.5 8.63968 13.421 8.78033 13.2803C8.92098 13.1397 9 12.9489 9 12.75C9 12.5511 8.92098 12.3603 8.78033 12.2197C8.63968 12.079 8.44891 12 8.25 12H3.75Z" fill="#24292E"/>
</svg>
