<svg width="16" height="16" viewBox="0 0 16 16" fill="none" xmlns="http://www.w3.org/2000/svg">
<path d="M8.83333 10.5V13.8333H11.3333V15.5H4.66667V13.8333H7.16667V10.5H1.33333C1.11232 10.5 0.900358 10.4122 0.744078 10.2559C0.587797 10.0996 0.5 9.88768 0.5 9.66667V1.33333C0.5 1.11232 0.587797 0.900358 0.744078 0.744078C0.900358 0.587797 1.11232 0.5 1.33333 0.5H14.6667C14.8877 0.5 15.0996 0.587797 15.2559 0.744078C15.4122 0.900358 15.5 1.11232 15.5 1.33333V9.66667C15.5 9.88768 15.4122 10.0996 15.2559 10.2559C15.0996 10.4122 14.8877 10.5 14.6667 10.5H8.83333ZM2.16667 8.83333H13.8333V2.16667H2.16667V8.83333ZM4.66667 4.66667H11.3333V6.33333H4.66667V4.66667Z" fill="#175FFF"/>
</svg>
