<svg width="24" height="25" viewBox="0 0 24 25" fill="none" xmlns="http://www.w3.org/2000/svg">
<path d="M3.783 3.39045L12 1.56445L20.217 3.39045C20.4391 3.43982 20.6377 3.56342 20.78 3.74086C20.9224 3.9183 21 4.13897 21 4.36645V14.3535C20.9999 15.3412 20.756 16.3136 20.2899 17.1845C19.8238 18.0553 19.1499 18.7976 18.328 19.3455L12 23.5645L5.672 19.3455C4.85027 18.7977 4.17646 18.0556 3.71035 17.1849C3.24424 16.3143 3.00024 15.342 3 14.3545V4.36645C3.00004 4.13897 3.07764 3.9183 3.21999 3.74086C3.36234 3.56342 3.56094 3.43982 3.783 3.39045ZM12 11.5645C12.663 11.5645 13.2989 11.3011 13.7678 10.8322C14.2366 10.3634 14.5 9.72749 14.5 9.06445C14.5 8.40141 14.2366 7.76553 13.7678 7.29669C13.2989 6.82785 12.663 6.56445 12 6.56445C11.337 6.56445 10.7011 6.82785 10.2322 7.29669C9.76339 7.76553 9.5 8.40141 9.5 9.06445C9.5 9.72749 9.76339 10.3634 10.2322 10.8322C10.7011 11.3011 11.337 11.5645 12 11.5645ZM7.527 16.5645H16.473C16.3518 15.4629 15.8283 14.4447 15.0029 13.7052C14.1775 12.9656 13.1082 12.5567 12 12.5567C10.8918 12.5567 9.82248 12.9656 8.99708 13.7052C8.17168 14.4447 7.64822 15.4629 7.527 16.5645Z" fill="#1E944D"/>
</svg>
