<svg width="106" height="20" viewBox="0 0 106 20" fill="none" xmlns="http://www.w3.org/2000/svg">
<g clip-path="url(#clip0_10781_1653)">
<path d="M15.9341 9.43855C15.8863 8.99644 15.7845 8.56185 15.6309 8.14453C14.5804 8.36179 13.635 8.62203 12.6704 8.86078C10.5384 9.41945 8.34908 9.99483 4.96362 10.2503C4.9826 10.7211 5.06286 11.1874 5.20237 11.6374C7.97902 11.3987 9.83888 10.8997 11.7727 10.3935C13.0501 10.0569 14.3584 9.7155 15.9341 9.43855Z" fill="#2863F6"/>
<path d="M9.63831 4.60584C10.7294 4.36709 11.7059 4.12834 12.6704 3.8681C14.382 3.38328 16.1251 3.01713 17.8871 2.77224C17.8949 2.77125 17.9023 2.76812 17.9084 2.76321C17.9146 2.75831 17.9193 2.7518 17.922 2.74441C17.9247 2.73702 17.9253 2.72903 17.9238 2.72131C17.9223 2.71359 17.9187 2.70643 17.9133 2.70062C16.6665 1.43343 15.1178 0.504215 13.4129 0.000369106C13.3857 -0.00793554 13.3566 -0.00793554 13.3294 0.000369106C12.7922 0.131681 12.2765 0.267768 11.7632 0.401467C9.60011 0.974465 7.53015 1.51881 4.16379 1.72891C4.13175 1.73133 4.10107 1.74293 4.07545 1.76234C2.83451 2.71972 1.82442 3.94358 1.11974 5.34357C1.11633 5.34994 1.11468 5.3571 1.11496 5.36431C1.11524 5.37153 1.11744 5.37854 1.12133 5.38462C1.12522 5.39071 1.13067 5.39564 1.1371 5.39892C1.14354 5.40219 1.15073 5.40369 1.15794 5.40326C3.82725 5.43248 6.49308 5.2022 9.11783 4.71566C9.28937 4.67034 9.46308 4.63368 9.63831 4.60584Z" fill="#2863F6"/>
<path d="M9.1178 4.71052L9.63827 4.60547C9.46313 4.63174 9.28942 4.6668 9.1178 4.71052Z" fill="#2863F6"/>
<path d="M4.9636 10.2522C4.9636 10.1853 4.9636 10.1185 4.9636 10.0492C4.96094 8.78453 5.39625 7.55792 6.19554 6.57782C6.19835 6.57468 6.20018 6.57079 6.20079 6.56663C6.20141 6.56246 6.20079 6.55821 6.19901 6.55439C6.19723 6.55058 6.19437 6.54737 6.19078 6.54517C6.18719 6.54297 6.18304 6.54187 6.17883 6.542C4.45886 6.73635 2.72885 6.82803 0.997975 6.81657H0.570615C0.55314 6.81668 0.53614 6.82227 0.522007 6.83255C0.507874 6.84282 0.497319 6.85728 0.491827 6.87387C0.16494 7.90058 -0.00096741 8.97173 4.24324e-06 10.0492C4.24324e-06 10.1543 4.24324e-06 10.2593 4.24324e-06 10.3644C4.24324e-06 10.3701 0.00226809 10.3755 0.00629776 10.3796C0.0103274 10.3836 0.0157928 10.3859 0.0214917 10.3859C0.339824 10.3859 0.662135 10.3859 0.988425 10.3859C2.49016 10.393 3.7985 10.3429 4.9636 10.2522Z" fill="#2863F6"/>
<path d="M15.6309 8.14401C17.2649 7.81148 18.9218 7.60317 20.5873 7.52087C20.5913 7.52066 20.5951 7.51957 20.5986 7.51767C20.602 7.51577 20.605 7.51312 20.6073 7.50991C20.6096 7.5067 20.6112 7.50301 20.6118 7.49912C20.6125 7.49523 20.6123 7.49124 20.6112 7.48745C20.3029 6.26659 19.7763 5.11156 19.0569 4.07811C19.0499 4.0678 19.0402 4.05965 19.0288 4.05459C19.0174 4.04953 19.0048 4.04775 18.9925 4.04946C16.9546 4.22467 14.9354 4.57371 12.9569 5.09279C12.9521 5.09436 12.948 5.0974 12.945 5.10147C12.9421 5.10555 12.9405 5.11045 12.9405 5.11547C12.9405 5.1205 12.9421 5.1254 12.945 5.12947C12.948 5.13355 12.9521 5.13659 12.9569 5.13816C14.1946 5.76805 15.1494 6.84135 15.6309 8.14401Z" fill="#2863F6"/>
<path d="M15.9699 10.0496C15.9703 11.1802 15.6218 12.2832 14.9719 13.2083C14.9669 13.2149 14.9639 13.2228 14.9635 13.2311C14.9632 13.2394 14.9653 13.2476 14.9697 13.2547C14.9742 13.2617 14.9806 13.2672 14.9883 13.2704C14.9959 13.2737 15.0044 13.2745 15.0125 13.2728C16.8352 12.8616 18.69 12.6084 20.5563 12.5159C20.579 12.5142 20.6006 12.5055 20.6182 12.4909C20.6357 12.4764 20.6483 12.4568 20.6542 12.4347C20.837 11.6521 20.9292 10.851 20.9287 10.0473C20.9289 9.6836 20.9098 9.32019 20.8714 8.95856C20.8697 8.94717 20.8639 8.93679 20.8551 8.92934C20.8464 8.92188 20.8352 8.91784 20.8237 8.91797C19.1845 8.98654 17.5513 9.15959 15.9341 9.43606C15.9582 9.63969 15.9702 9.84458 15.9699 10.0496Z" fill="#2863F6"/>
<path d="M5.19281 11.6396C3.99906 11.7471 2.61909 11.8092 0.993213 11.8092H0.198179C0.191878 11.8091 0.185636 11.8104 0.179893 11.813C0.174151 11.8156 0.169048 11.8194 0.164948 11.8242C0.160847 11.8289 0.157849 11.8346 0.156165 11.8406C0.154481 11.8467 0.154153 11.8531 0.155204 11.8593C0.368966 13.0853 0.801632 14.2628 1.43251 15.3355C1.44144 15.3509 1.45433 15.3637 1.46986 15.3726C1.48539 15.3814 1.50299 15.3859 1.52085 15.3856C3.61014 15.3846 5.69664 15.233 7.76413 14.932C7.7718 14.9287 7.77833 14.9231 7.78291 14.9161C7.78749 14.9092 7.78993 14.901 7.78993 14.8926C7.78993 14.8842 7.78749 14.8761 7.78291 14.8691C7.77833 14.8621 7.7718 14.8566 7.76413 14.8532C6.52464 14.1538 5.60337 13.0024 5.19281 11.6396Z" fill="#2863F6"/>
<path d="M17.5194 17.7776C18.6574 16.7418 19.5539 15.4688 20.1456 14.0483C20.1496 14.0375 20.1509 14.0259 20.1492 14.0145C20.1476 14.0031 20.1431 13.9922 20.1362 13.983C20.1294 13.9738 20.1203 13.9664 20.1098 13.9615C20.0994 13.9567 20.0879 13.9545 20.0764 13.9552C17.4109 14.1157 14.7699 14.5583 12.1977 15.2755C11.9771 15.3484 11.7523 15.4074 11.5244 15.4522C8.6215 16.2807 5.62307 16.7278 2.60473 16.782C2.59209 16.7822 2.57977 16.786 2.5692 16.7929C2.55862 16.7998 2.55023 16.8096 2.54498 16.8211C2.53973 16.8326 2.53785 16.8453 2.53955 16.8578C2.54125 16.8704 2.54647 16.8821 2.55459 16.8918C3.79246 18.3294 5.39869 19.4024 7.20065 19.9956C7.22428 20.0004 7.24864 20.0004 7.27227 19.9956C9.0943 19.7348 10.8975 19.356 12.6704 18.8615C14.2399 18.4216 15.8344 18.0764 17.4454 17.8277C17.4739 17.8175 17.4993 17.8003 17.5194 17.7776Z" fill="#2863F6"/>
<path d="M11.5197 15.4522C11.7474 15.4089 11.9723 15.3515 12.1929 15.2803L11.7632 15.3925L11.5197 15.4522Z" fill="#2863F6"/>
<path d="M48.8934 15.7383C48.8309 15.5138 48.7925 15.2833 48.7788 15.0507C48.7621 14.812 48.7549 14.5374 48.7549 14.2652V9.66216C48.7852 8.87558 48.5261 8.10518 48.0267 7.49671C47.5143 6.90893 46.8553 6.46739 46.1168 6.21701C45.2818 5.92675 44.403 5.78298 43.5192 5.79204C42.5995 5.77682 41.6849 5.93141 40.8213 6.24805C40.0805 6.51229 39.4265 6.97475 38.9304 7.58504C38.4564 8.20626 38.211 8.97188 38.2356 9.75288H41.294C41.2787 9.5242 41.3228 9.29544 41.4219 9.08879C41.521 8.88214 41.6719 8.70463 41.8599 8.57346C42.2371 8.31562 42.7838 8.18669 43.5001 8.18669C44.0471 8.15778 44.592 8.27565 45.0782 8.5281C45.2493 8.6165 45.3927 8.75044 45.4926 8.91517C45.5924 9.07989 45.6448 9.26899 45.644 9.46161V9.48071C45.644 9.71946 45.422 9.87942 44.9779 9.97253C44.5338 10.0656 43.7269 10.1707 42.557 10.2829C41.7951 10.3546 41.0451 10.5214 40.3247 10.7795C39.692 10.9965 39.125 11.3712 38.6773 11.8682C38.2489 12.3852 38.0277 13.0429 38.0566 13.7137C38.0379 14.3223 38.2172 14.9205 38.5675 15.4184C38.9302 15.9018 39.4217 16.2733 39.9857 16.4904C40.6457 16.7478 41.3497 16.8735 42.058 16.8604C42.684 16.8661 43.3073 16.7801 43.9083 16.605C44.4428 16.4534 44.9451 16.2058 45.391 15.8744C45.5297 15.767 45.6591 15.648 45.7777 15.5187C45.8064 15.6309 45.8374 15.7407 45.8756 15.8505C45.933 16.0303 46.0133 16.2021 46.1144 16.3615C46.1785 16.4638 46.2503 16.5612 46.3292 16.6527H49.3876C49.2959 16.5557 49.2158 16.4483 49.1489 16.3328C49.0345 16.1485 48.9483 15.9481 48.8934 15.7383ZM45.2835 13.432C45.0263 13.8055 44.6664 14.0965 44.2473 14.27C43.8127 14.4487 43.3468 14.5388 42.8769 14.535C42.4321 14.5642 41.988 14.4683 41.5948 14.2581C41.455 14.1722 41.341 14.05 41.2649 13.9046C41.1888 13.7592 41.1535 13.5959 41.1627 13.432C41.1529 13.2592 41.1961 13.0874 41.2866 12.9398C41.377 12.7922 41.5104 12.6757 41.6689 12.6059C42.1561 12.4059 42.6734 12.2889 43.1992 12.2597C43.7722 12.1977 44.35 12.1165 44.9278 12.021C45.1952 11.9732 45.4483 11.9183 45.6846 11.8587V11.9374C45.709 12.4651 45.5688 12.9874 45.2835 13.432Z" fill="white"/>
<path d="M58.1449 11.0712C57.7008 10.8317 57.2294 10.6465 56.7411 10.5197C56.2421 10.3884 55.7694 10.2809 55.3205 10.2141C54.8717 10.1472 54.43 10.0493 54.0671 9.95861C53.7679 9.89397 53.483 9.77502 53.2267 9.60765C53.1339 9.54759 53.0577 9.46516 53.0052 9.36796C52.9526 9.27075 52.9253 9.16188 52.9259 9.05137C52.9217 8.94394 52.9452 8.83726 52.9941 8.74153C53.0431 8.6458 53.1157 8.56423 53.2052 8.50463C53.413 8.36525 53.6469 8.26942 53.8928 8.22291C54.1517 8.16679 54.4158 8.13799 54.6807 8.13696C54.9562 8.13665 55.2301 8.17934 55.4924 8.2635C55.7344 8.33623 55.956 8.4646 56.1394 8.63833C56.2245 8.72358 56.2911 8.82546 56.3351 8.9376C56.379 9.04975 56.3994 9.16975 56.3949 9.29012V9.41188H59.4485V9.27102C59.4655 8.5865 59.2272 7.92014 58.78 7.40161C58.3041 6.86325 57.7007 6.45282 57.0252 6.20787C56.2793 5.92618 55.4875 5.78532 54.6902 5.79245C53.8732 5.78334 53.0605 5.91166 52.286 6.17206C51.6149 6.3885 51.0117 6.77607 50.536 7.29656C50.0942 7.79959 49.8596 8.45141 49.8794 9.1206C49.8619 9.60976 49.9934 10.0927 50.2566 10.5053C50.5181 10.8908 50.8654 11.2104 51.2713 11.4389C51.7071 11.689 52.1711 11.8862 52.6537 12.0262C53.1415 12.1692 53.6374 12.2832 54.1387 12.3676C54.7765 12.4596 55.4052 12.6066 56.0177 12.8069C56.1851 12.8493 56.3338 12.9462 56.4401 13.0824C56.5464 13.2185 56.6044 13.3862 56.605 13.5589C56.6066 13.6657 56.5822 13.7712 56.5339 13.8665C56.4857 13.9617 56.415 14.0438 56.328 14.1057C56.1215 14.261 55.8822 14.3671 55.6285 14.4161C55.3369 14.4808 55.039 14.5128 54.7404 14.5116C54.2592 14.5346 53.7794 14.4421 53.3413 14.2418C53.181 14.1662 53.0465 14.0451 52.9548 13.8934C52.863 13.7418 52.8181 13.5665 52.8256 13.3894V13.2486H49.7362V13.43C49.7248 13.9614 49.8656 14.485 50.142 14.9389C50.4218 15.3781 50.7993 15.7466 51.2451 16.0157C51.7343 16.3147 52.2677 16.5347 52.8256 16.6675C53.4253 16.817 54.0412 16.8916 54.6592 16.8895C55.2646 16.8898 55.8682 16.8242 56.4594 16.6937C57.0176 16.5726 57.555 16.3699 58.0542 16.0921C58.5145 15.8379 58.9055 15.4747 59.193 15.0344C59.4822 14.5651 59.6282 14.0216 59.6132 13.4706C59.6336 12.9539 59.4917 12.4438 59.2074 12.0119C58.9315 11.6197 58.5676 11.2975 58.1449 11.0712Z" fill="white"/>
<path d="M69.1704 6.49927C68.2242 6.00418 67.1676 5.75771 66.1 5.78302C65.0414 5.76048 63.9934 5.99909 63.0488 6.47778C62.1937 6.91931 61.481 7.59392 60.9932 8.42358C60.4883 9.30639 60.2333 10.31 60.2555 11.3268C60.2336 12.3347 60.4808 13.3303 60.9717 14.2109C61.4531 15.0412 62.159 15.719 63.0083 16.1662C63.9582 16.6581 65.0162 16.9043 66.0857 16.8825C66.8705 16.8936 67.6527 16.7923 68.4088 16.5816C69.0292 16.4077 69.6154 16.1291 70.1421 15.7579C70.5853 15.4458 70.9632 15.05 71.2546 14.5929C71.5109 14.1963 71.6696 13.7447 71.7178 13.275H68.6475C68.6221 13.4309 68.5608 13.5789 68.4684 13.7071C68.3553 13.87 68.2108 14.0088 68.0435 14.1154C67.814 14.2503 67.5652 14.3494 67.3057 14.409C66.9548 14.4931 66.5946 14.5324 66.2338 14.526C65.6716 14.5458 65.1148 14.4104 64.6246 14.1345C64.1913 13.8728 63.8506 13.4821 63.6505 13.0171C63.5429 12.7704 63.4629 12.5126 63.4117 12.2483H71.8372C71.8527 12.1359 71.8623 12.0227 71.8658 11.9093C71.8658 11.7541 71.8658 11.5942 71.8658 11.4318C71.8888 10.4035 71.6471 9.38653 71.1639 8.47849C70.7054 7.63938 70.0128 6.95172 69.1704 6.49927ZM64.6222 8.49521C65.0828 8.23572 65.6049 8.10539 66.1335 8.11798C66.6381 8.09748 67.1388 8.2138 67.5827 8.45462C67.9403 8.65396 68.2335 8.95134 68.4278 9.31173C68.5694 9.58448 68.6569 9.88199 68.6857 10.1879H63.4332C63.4824 9.97422 63.5536 9.76619 63.6457 9.56719C63.8542 9.11857 64.1949 8.74449 64.6222 8.49521Z" fill="white"/>
<path d="M81.1961 6.54475C80.3231 6.08374 79.3507 5.84277 78.3634 5.84277C77.3761 5.84277 76.4037 6.08374 75.5306 6.54475C74.7242 7.001 74.0586 7.66995 73.6063 8.47862C73.1302 9.34436 72.8898 10.32 72.9092 11.3078C72.891 12.2993 73.1313 13.2784 73.6063 14.1489C74.0572 14.9672 74.7225 15.6473 75.5306 16.1162C76.4011 16.5855 77.3745 16.8312 78.3634 16.8312C79.3523 16.8312 80.3257 16.5855 81.1961 16.1162C82.005 15.6474 82.671 14.9673 83.1229 14.1489C83.5971 13.2781 83.8374 12.2992 83.82 11.3078C83.8381 10.3201 83.5978 9.34481 83.1229 8.47862C82.6698 7.66978 82.0033 7.00085 81.1961 6.54475ZM81.6283 13.3921C81.3285 13.9688 80.8716 14.4489 80.3104 14.7768C79.7135 15.0997 79.0456 15.2687 78.367 15.2687C77.6884 15.2687 77.0204 15.0997 76.4236 14.7768C75.8605 14.4497 75.4018 13.9695 75.1009 13.3921C74.7712 12.7477 74.6071 12.0314 74.6234 11.3078C74.6056 10.5878 74.7698 9.87504 75.1009 9.23545C75.4025 8.6659 75.8617 8.19514 76.4236 7.87936C77.0238 7.56716 77.6904 7.40415 78.367 7.40415C79.0435 7.40415 79.7102 7.56716 80.3104 7.87936C80.87 8.19544 81.3273 8.6652 81.6283 9.23307C81.9593 9.87265 82.1236 10.5854 82.1058 11.3054C82.1225 12.0298 81.9584 12.747 81.6283 13.3921Z" fill="white"/>
<path d="M91.8611 6.30355C91.1931 5.97553 90.4564 5.81182 89.7124 5.82605C88.9201 5.82383 88.1423 6.0385 87.4633 6.4468C86.9746 6.73647 86.5426 7.11266 86.1884 7.55698V5.99317H84.4838V16.6414H86.1884V10.7156C86.1776 10.1399 86.3237 9.57208 86.611 9.07303C86.8934 8.58976 87.2934 8.1857 87.7737 7.89839C88.2509 7.61165 88.7976 7.46135 89.3542 7.46387C89.8994 7.43953 90.4415 7.55717 90.9276 7.80528C91.3182 8.01889 91.6284 8.35422 91.811 8.76027C92.0072 9.21938 92.1033 9.71507 92.0927 10.2143V16.6414H93.7973V9.76302C93.8184 9.02711 93.6437 8.29879 93.2912 7.65248C92.9581 7.07155 92.4605 6.60219 91.8611 6.30355Z" fill="white"/>
<path d="M104.426 8.45434C104.009 7.65853 103.376 6.9965 102.6 6.54435C101.748 6.05506 100.779 5.80819 99.7971 5.83049C98.8126 5.81277 97.8409 6.05488 96.9798 6.53241C96.1692 6.98961 95.5002 7.66116 95.046 8.47344C94.566 9.35081 94.324 10.3385 94.344 11.3384C94.323 12.3375 94.5625 13.3249 95.0388 14.2034C95.4877 15.0169 96.1528 15.6904 96.9607 16.1492C97.8269 16.6313 98.806 16.8736 99.7971 16.8511C100.525 16.864 101.251 16.7592 101.946 16.5408C102.515 16.3609 103.048 16.0812 103.519 15.7147C103.919 15.3985 104.254 15.0077 104.505 14.5639C104.729 14.1729 104.866 13.7379 104.906 13.289H103.202C103.17 13.5384 103.084 13.7779 102.951 13.9909C102.791 14.2458 102.582 14.4658 102.335 14.6379C102.023 14.8573 101.675 15.019 101.306 15.1154C100.828 15.2399 100.336 15.2986 99.8424 15.2897C99.1306 15.3099 98.4257 15.1454 97.7964 14.8122C97.2273 14.4967 96.7651 14.0188 96.4689 13.4394C96.2417 12.9916 96.0977 12.5062 96.0439 12.0069H105.028C105.045 11.8907 105.055 11.7734 105.057 11.656C105.057 11.4841 105.057 11.3432 105.057 11.2358C105.079 10.2709 104.862 9.31541 104.426 8.45434ZM97.8274 7.85747C98.44 7.52791 99.1279 7.36335 99.8233 7.37997C100.481 7.35594 101.133 7.51372 101.707 7.83598C102.201 8.12957 102.599 8.55886 102.855 9.0727C103.073 9.51228 103.2 9.99145 103.228 10.4813H96.0654C96.1303 10.0408 96.2717 9.61495 96.4832 9.22311C96.7908 8.64819 97.2574 8.17406 97.8274 7.85747Z" fill="white"/>
<path d="M36.7673 8.27992C36.3434 7.50573 35.7138 6.86374 34.9481 6.42484C34.2114 6.00763 33.3785 5.79034 32.5319 5.79454C32.3934 5.79454 32.2574 5.79454 32.126 5.81125C31.4499 5.86589 30.7959 6.07763 30.2161 6.42961C30.1062 6.49646 29.9988 6.56809 29.8961 6.6421C29.6613 6.8122 29.4424 7.00318 29.242 7.21271V3.11816C28.0745 3.26619 27.0598 3.45241 26.1239 3.65774V16.6337H29.242V15.3731C29.4452 15.5968 29.6699 15.7999 29.9128 15.9796C30.0107 16.056 30.111 16.1252 30.2161 16.1921C30.9061 16.6367 31.7111 16.8699 32.5319 16.8629C33.3911 16.8737 34.2378 16.6571 34.9863 16.235C35.7539 15.7893 36.3797 15.1354 36.7912 14.3489C37.2784 13.3938 37.5166 12.3312 37.4836 11.2595C37.5101 10.2207 37.2631 9.19317 36.7673 8.27992ZM33.5156 13.4703C33.0401 13.934 32.401 14.1914 31.7369 14.1866C31.5766 14.1861 31.4166 14.1701 31.2594 14.1388C31.0095 14.0901 30.7682 14.0048 30.5431 13.8857C30.1779 13.6946 29.8673 13.4136 29.6407 13.0692L29.612 13.0286C29.366 12.6408 29.2397 12.189 29.2491 11.7298V10.8083C29.2349 10.351 29.3589 9.90001 29.6049 9.51425C29.8376 9.15915 30.1584 8.87042 30.536 8.67624C30.9043 8.48289 31.3138 8.38133 31.7297 8.38019C32.0259 8.37782 32.3203 8.42461 32.6012 8.51867C32.9405 8.63673 33.2519 8.82369 33.5156 9.06779C34.0154 9.52619 34.2652 10.2568 34.2652 11.2595C34.2652 12.2622 34.0154 12.9992 33.5156 13.4703Z" fill="white"/>
</g>
<defs>
<clipPath id="clip0_10781_1653">
<rect width="105.066" height="20" fill="white"/>
</clipPath>
</defs>
</svg>
