<svg width="18" height="18" viewBox="0 0 18 18" fill="none" xmlns="http://www.w3.org/2000/svg">
<path fillRule="evenodd" clipRule="evenodd" d="M6.88724 0.441196C7.49809 0.0869028 8.25191 0.086903 8.86276 0.441196L14.769 3.86682C15.3763 4.21901 15.75 4.86788 15.75 5.56986V8.1562C15.75 8.62218 15.3722 8.99995 14.9062 8.99995C14.4403 8.99995 14.0625 8.62218 14.0625 8.1562V6.38662L8.71875 9.48599V16.3125V16.668C8.71875 17.535 7.77932 18.0761 7.02931 17.6411L0.980993 14.1331C0.373767 13.7809 0 13.132 0 12.4301V5.56986C0 4.86788 0.373765 4.21901 0.980992 3.86682L6.88724 0.441196ZM8.01611 1.90094L13.2246 4.92183L7.87501 8.02457L2.52546 4.92183L7.73389 1.90094C7.82116 1.85032 7.92884 1.85032 8.01611 1.90094ZM1.6875 12.4301V6.38662L7.03125 9.48599V15.6915L1.82764 12.6733C1.74089 12.623 1.6875 12.5303 1.6875 12.4301ZM14.8183 12.1127C15.1395 11.7751 15.1261 11.2411 14.7885 10.9199C14.4508 10.5987 13.9168 10.612 13.5956 10.9496L10.9199 13.7622C10.61 14.0879 10.61 14.5995 10.9199 14.9252L13.5956 17.7377C13.9168 18.0755 14.4508 18.0887 14.7885 17.7675C15.1261 17.4464 15.1395 16.9123 14.8183 16.5747L13.4985 15.1875H17.1562C17.6222 15.1875 18 14.8097 18 14.3437C18 13.8777 17.6222 13.5 17.1562 13.5H13.4985L14.8183 12.1127Z" fill="#175FFF"/>
</svg>
