<svg width="18" height="18" viewBox="0 0 18 18" fill="none" xmlns="http://www.w3.org/2000/svg">
<path fillRule="evenodd" clipRule="evenodd" d="M8.35728 1.7153C8.56883 1.69691 8.78316 1.6875 8.99988 1.6875C9.2166 1.6875 9.43092 1.69691 9.64248 1.7153C9.6824 1.71876 9.76411 1.75668 9.79632 1.8798L10.1215 3.12325C10.2865 3.75386 10.7393 4.21062 11.2435 4.46032C11.4387 4.557 11.6269 4.66597 11.807 4.78623C12.2757 5.09919 12.8982 5.26315 13.5272 5.09059L14.768 4.75014C14.8905 4.71652 14.9643 4.7681 14.9875 4.80103C15.2333 5.15079 15.4491 5.52289 15.6313 5.91361C15.648 5.94945 15.6562 6.03891 15.5656 6.12839L14.649 7.03415C14.186 7.49161 14.0164 8.11134 14.052 8.67283C14.0589 8.7809 14.0624 8.88997 14.0624 9C14.0624 9.11003 14.0589 9.2191 14.052 9.32717C14.0164 9.88866 14.186 10.5084 14.649 10.9658L15.5656 11.8716C15.6562 11.9611 15.648 12.0505 15.6313 12.0864C15.4491 12.4771 15.2333 12.8492 14.9875 13.1989C14.9643 13.2319 14.8905 13.2834 14.768 13.2499L13.5272 12.9094C12.8982 12.7368 12.2757 12.9008 11.807 13.2138C11.6269 13.3341 11.4387 13.443 11.2435 13.5397C10.7393 13.7894 10.2865 14.2461 10.1215 14.8768L9.79632 16.1202C9.76411 16.2433 9.6824 16.2812 9.64248 16.2847C9.43092 16.303 9.2166 16.3125 8.99988 16.3125C8.78316 16.3125 8.56883 16.303 8.35728 16.2847C8.31734 16.2812 8.23563 16.2433 8.20343 16.1202L7.87821 14.8767C7.71328 14.2461 7.26044 13.7894 6.75631 13.5397C6.56111 13.443 6.37296 13.3341 6.19286 13.2138C5.72416 12.9008 5.10154 12.7368 4.47262 12.9094L3.23176 13.2499C3.10923 13.2834 3.03542 13.2319 3.01227 13.1989C2.76649 12.8492 2.55068 12.4771 2.36849 12.0864C2.35177 12.0505 2.34357 11.9611 2.43412 11.8716L3.35086 10.9658C3.81382 10.5083 3.9835 9.8886 3.94777 9.32713C3.94091 9.21908 3.93741 9.11 3.93741 9C3.93741 8.89 3.94091 8.78092 3.94777 8.67287C3.9835 8.1114 3.81382 7.49167 3.35086 7.03422L2.43412 6.12839C2.34357 6.03892 2.35177 5.94946 2.36849 5.91362C2.55068 5.52289 2.76649 5.15079 3.01228 4.80103C3.03542 4.7681 3.10923 4.71653 3.23176 4.75014L4.47262 5.0906C5.10154 5.26317 5.72416 5.0992 6.19286 4.78624C6.37296 4.66599 6.56111 4.55703 6.75631 4.46034C7.26043 4.21064 7.71328 3.75388 7.87821 3.12328L8.20343 1.8798C8.23563 1.75668 8.31734 1.71876 8.35728 1.7153ZM8.99988 0C8.73431 0 8.47123 0.0115256 8.21113 0.0341364C7.3755 0.106779 6.76103 0.725672 6.57085 1.4528L6.24562 2.6963C6.22598 2.77143 6.15686 2.8741 6.0073 2.94819C5.74674 3.07725 5.4958 3.22258 5.25579 3.38284C5.11744 3.47521 4.99412 3.48383 4.91913 3.46326L3.67827 3.12279C2.95462 2.92424 2.11293 3.14583 1.63159 3.83079C1.32927 4.26102 1.06356 4.71907 0.839091 5.20045C0.484752 5.96034 0.714054 6.80113 1.24804 7.32877L2.16478 8.23458C2.22007 8.28921 2.27422 8.40012 2.26368 8.56574C2.25455 8.70942 2.24991 8.85423 2.24991 9C2.24991 9.14577 2.25455 9.29058 2.26368 9.43426C2.27422 9.59988 2.22007 9.71079 2.16478 9.76542L1.24804 10.6712C0.714053 11.1989 0.484752 12.0396 0.839091 12.7996C1.06356 13.281 1.32927 13.7389 1.63159 14.1692C2.11293 14.8542 2.95462 15.0758 3.67827 14.8772L4.91913 14.5368C4.99412 14.5162 5.11745 14.5248 5.25579 14.6171C5.4958 14.7774 5.74674 14.9228 6.0073 15.0518C6.15686 15.1259 6.22598 15.2286 6.24562 15.3037L6.57085 16.5472C6.76103 17.2744 7.3755 17.8932 8.21113 17.9659C8.47123 17.9885 8.73431 18 8.99988 18C9.26545 18 9.52853 17.9885 9.78862 17.9659C10.6242 17.8932 11.2387 17.2744 11.4289 16.5472L11.7541 15.3037C11.7738 15.2286 11.8429 15.126 11.9925 15.0518C12.253 14.9228 12.504 14.7774 12.744 14.6171C12.8824 14.5248 13.0057 14.5162 13.0807 14.5368L14.3215 14.8772C15.0452 15.0758 15.8868 14.8542 16.3682 14.1693C16.6705 13.7389 16.9362 13.281 17.1606 12.7996C17.515 12.0396 17.2857 11.1989 16.7517 10.6712L15.835 9.76547C15.7797 9.71085 15.7256 9.59994 15.7362 9.43432C15.7453 9.29061 15.7499 9.14579 15.7499 9C15.7499 8.85421 15.7453 8.70939 15.7362 8.56568C15.7256 8.40006 15.7797 8.28915 15.835 8.23453L16.7517 7.32876C17.2857 6.80112 17.515 5.96033 17.1606 5.20044C16.9362 4.71906 16.6705 4.261 16.3682 3.83079C15.8868 3.14581 15.0452 2.92424 14.3215 3.12279L13.0807 3.46323C13.0057 3.48381 12.8824 3.4752 12.744 3.38283C12.504 3.22256 12.253 3.07721 11.9925 2.94814C11.8429 2.87407 11.7738 2.77139 11.7541 2.69625L11.4289 1.4528C11.2387 0.72567 10.6242 0.106777 9.78862 0.0341354C9.52853 0.0115253 9.26545 0 8.99988 0ZM10.6874 9C10.6874 9.93198 9.93186 10.6875 8.99988 10.6875C8.06789 10.6875 7.31238 9.93198 7.31238 9C7.31238 8.06802 8.06789 7.3125 8.99988 7.3125C9.93186 7.3125 10.6874 8.06802 10.6874 9ZM12.3749 9C12.3749 10.864 10.8638 12.375 8.99988 12.375C7.13592 12.375 5.62488 10.864 5.62488 9C5.62488 7.13604 7.13592 5.625 8.99988 5.625C10.8638 5.625 12.3749 7.13604 12.3749 9Z" fill="#777777"/>
</svg>
