<svg width="24" height="20" viewBox="0 0 24 20" fill="none" xmlns="http://www.w3.org/2000/svg">
<path d="M12 10.586L16.243 14.828L14.828 16.243L13 14.415V20H11V14.413L9.17202 16.243L7.75702 14.828L12 10.586ZM12 2.2216e-08C13.717 8.17698e-05 15.3741 0.631114 16.6562 1.77312C17.9383 2.91512 18.7561 4.48846 18.954 6.194C20.1983 6.53332 21.2837 7.2991 22.0207 8.35753C22.7576 9.41595 23.0992 10.6997 22.9856 11.9844C22.8721 13.2691 22.3107 14.473 21.3996 15.3858C20.4884 16.2986 19.2855 16.8622 18.001 16.978V14.964C18.4612 14.8983 18.9037 14.7416 19.3026 14.503C19.7015 14.2644 20.049 13.9487 20.3246 13.5744C20.6002 13.2001 20.7985 12.7746 20.9079 12.3228C21.0173 11.8711 21.0356 11.402 20.9617 10.9431C20.8879 10.4841 20.7233 10.0445 20.4777 9.64985C20.2321 9.25519 19.9104 8.91342 19.5312 8.64447C19.1521 8.37552 18.7232 8.18479 18.2695 8.08341C17.8159 7.98203 17.3466 7.97203 16.889 8.054C17.0456 7.32489 17.0372 6.56997 16.8642 5.84455C16.6913 5.11913 16.3583 4.44158 15.8896 3.86153C15.4209 3.28147 14.8284 2.81361 14.1555 2.49219C13.4826 2.17078 12.7463 2.00397 12.0005 2.00397C11.2548 2.00397 10.5185 2.17078 9.84554 2.49219C9.17262 2.81361 8.58011 3.28147 8.11142 3.86153C7.64273 4.44158 7.30972 5.11913 7.1368 5.84455C6.96387 6.56997 6.95541 7.32489 7.11202 8.054C6.19967 7.88267 5.25663 8.08079 4.49036 8.60476C3.72409 9.12874 3.19735 9.93565 3.02602 10.848C2.85469 11.7603 3.0528 12.7034 3.57678 13.4697C4.10075 14.2359 4.90767 14.7627 5.82002 14.934L6.00002 14.964V16.978C4.71547 16.8623 3.51242 16.2989 2.60115 15.3862C1.68988 14.4735 1.12834 13.2696 1.01469 11.9848C0.901037 10.7001 1.2425 9.41628 1.97939 8.35777C2.71627 7.29926 3.80172 6.53339 5.04602 6.194C5.24372 4.48838 6.06142 2.91491 7.3436 1.77287C8.62577 0.63082 10.283 -0.000136703 12 2.2216e-08Z" fill="#175FFF"/>
</svg>
